# xmcd
#
# Track frame offsets: 
#        183
#        47020
#        111633
#        137508
#        156033
#        176508
#
# Disc length: 2699 seconds
#
# Revision: 9
# Processed by: cddbd v1.5.2PL0 Copyright (c) Steve Scherf et al.
# Submitted via: ExactAudioCopy v1.0b3
#
DISCID=4b0a8906
DTITLE=Artur Grumiaux - Berg and Stravinsky - Violin Concertos 
DYEAR=1966
DGENRE=Violin Concerto
TTITLE0=Alban Berg - Violin Concerto 'To the memory of the Angels' - I
TTITLE0=Andante - Allegretto  [dir - Igor Markrvitch]
TTITLE1=Alban Berg - Violin Concerto 'To the memory of the Angels' - I
TTITLE1=I. Allegro - Adagio
TTITLE2=Igor Stravinsky - Violin Concerto in D major - I. Toccata  [di
TTITLE2=r - Ernest Bour]
TTITLE3=Igor Stravinsky - Violin Concerto in D major - II. Aria 1
TTITLE4=Igor Stravinsky - Violin Concerto in D major - III. Aria 2
TTITLE5=Igor Stravinsky - Violin Concerto in D major - IV. Capriccio
EXTD=Concertgebouw Orchestra, Amsterdam\nconducted by :\nIgor Markevit
EXTD=ch (Berg]\nErnest Bour (Stravinsky]\n
EXTT0=
EXTT1=
EXTT2=
EXTT3=
EXTT4=
EXTT5=
PLAYORDER=
